<svg width="1127" height="178" viewBox="0 0 1127 178" fill="none" xmlns="http://www.w3.org/2000/svg">
<rect width="1152" height="182" fill="white"/>
<path d="M484.605 51H463.395C460.972 51 459 52.9716 459 55.3945V76.6055C459 79.0284 460.972 81 463.395 81H472.242V70.3945H468.727V65.1211H472.242V61.5469C472.242 58.6389 474.608 56.2734 477.516 56.2734H482.848V61.5469H477.516V65.1211H482.848L481.969 70.3945H477.516V81H484.605C487.028 81 489 79.0284 489 76.6055V55.3945C489 52.9716 487.028 51 484.605 51Z" fill="#21243D"/>
<path d="M686.605 51H665.395C662.972 51 661 52.9716 661 55.3945V76.6055C661 79.0284 662.972 81 665.395 81H686.605C689.028 81 691 79.0284 691 76.6055V55.3945C691 52.9716 689.028 51 686.605 51ZM671.605 74.7891H668.09V62.4844H671.605V74.7891ZM671.605 60.7266H668.09V57.2109H671.605V60.7266ZM683.91 74.7891H680.395V67.7578C680.395 66.7887 679.606 66 678.637 66C677.668 66 676.879 66.7887 676.879 67.7578V74.7891H673.363V62.4844H676.879V63.147C677.8 62.8607 678.398 62.4844 679.516 62.4844C681.9 62.4869 683.91 64.6258 683.91 67.1536V74.7891Z" fill="#21243D"/>
<path d="M625.923 54.5515C624.55 55.1538 623.087 55.5531 621.562 55.7469C623.131 54.81 624.328 53.3377 624.892 51.5631C623.428 52.4354 621.813 53.0515 620.092 53.3954C618.702 51.9162 616.722 51 614.562 51C610.372 51 606.998 54.4015 606.998 58.5715C606.998 59.1715 607.048 59.7485 607.173 60.2977C600.88 59.9908 595.312 56.9746 591.571 52.38C590.918 53.5131 590.535 54.81 590.535 56.2062C590.535 58.8277 591.885 61.1515 593.897 62.4969C592.681 62.4738 591.488 62.1208 590.477 61.5646C590.477 61.5877 590.477 61.6177 590.477 61.6477C590.477 65.3262 593.101 68.3815 596.542 69.0854C595.925 69.2538 595.254 69.3346 594.557 69.3346C594.072 69.3346 593.583 69.3069 593.124 69.2054C594.105 72.2031 596.888 74.4069 600.197 74.4785C597.622 76.4931 594.352 77.7069 590.812 77.7069C590.191 77.7069 589.595 77.6792 589 77.6031C592.353 79.7654 596.327 81 600.612 81C614.542 81 622.157 69.4615 622.157 59.46C622.157 59.1254 622.145 58.8023 622.129 58.4815C623.632 57.4154 624.894 56.0838 625.923 54.5515Z" fill="#21243D"/>
<path d="M545.721 51H532.279C527.714 51 524 54.714 524 59.2789V72.7211C524 77.2862 527.714 81 532.279 81H545.721C550.286 81 554 77.286 554 72.7211V59.2789C554 54.714 550.286 51 545.721 51ZM551.338 72.7211C551.338 75.8185 548.818 78.3383 545.721 78.3383H532.279C529.182 78.3384 526.662 75.8185 526.662 72.7211V59.2789C526.662 56.1817 529.182 53.6617 532.279 53.6617H545.721C548.818 53.6617 551.338 56.1817 551.338 59.2789V72.7211H551.338Z" fill="#21243D"/>
<path d="M539 58.2701C534.737 58.2701 531.27 61.7379 531.27 66.0004C531.27 70.2627 534.737 73.7303 539 73.7303C543.263 73.7303 546.73 70.2627 546.73 66.0004C546.73 61.7379 543.263 58.2701 539 58.2701ZM539 71.0683C536.205 71.0683 533.932 68.7949 533.932 66.0002C533.932 63.2054 536.205 60.9317 539 60.9317C541.795 60.9317 544.069 63.2054 544.069 66.0002C544.069 68.7949 541.795 71.0683 539 71.0683Z" fill="#21243D"/>
<path d="M547.054 56.0132C546.542 56.0132 546.038 56.2208 545.676 56.5846C545.312 56.9466 545.103 57.4505 545.103 57.9651C545.103 58.4781 545.312 58.9819 545.676 59.3457C546.038 59.7077 546.542 59.9171 547.054 59.9171C547.569 59.9171 548.071 59.7077 548.435 59.3457C548.799 58.9819 549.006 58.478 549.006 57.9651C549.006 57.4505 548.799 56.9466 548.435 56.5846C548.073 56.2208 547.569 56.0132 547.054 56.0132Z" fill="#21243D"/>
<path d="M472.659 118.842C472.591 119.466 472.411 120.029 472.119 120.53C471.827 121.027 471.415 121.419 470.882 121.706C470.349 121.993 469.681 122.137 468.879 122.137C468.1 122.137 467.418 121.948 466.835 121.569C466.252 121.187 465.798 120.649 465.475 119.956C465.151 119.263 464.989 118.454 464.989 117.529V116.524C464.989 115.595 465.151 114.786 465.475 114.098C465.803 113.405 466.268 112.867 466.869 112.484C467.471 112.102 468.182 111.91 469.002 111.91C470.132 111.91 470.998 112.22 471.6 112.84C472.206 113.455 472.559 114.255 472.659 115.239H471.333C471.233 114.542 471.009 113.993 470.663 113.592C470.321 113.186 469.768 112.983 469.002 112.983C468.122 112.983 467.455 113.307 466.999 113.954C466.548 114.601 466.322 115.453 466.322 116.511V117.529C466.322 118.181 466.413 118.776 466.596 119.313C466.778 119.847 467.056 120.273 467.43 120.592C467.808 120.911 468.291 121.07 468.879 121.07C469.439 121.07 469.884 120.981 470.212 120.804C470.545 120.626 470.795 120.371 470.964 120.038C471.137 119.705 471.26 119.307 471.333 118.842H472.659ZM473.924 118.227C473.924 117.511 474.061 116.871 474.334 116.306C474.607 115.741 474.995 115.294 475.496 114.966C475.997 114.633 476.592 114.467 477.28 114.467C477.978 114.467 478.579 114.633 479.085 114.966C479.591 115.294 479.978 115.741 480.247 116.306C480.521 116.871 480.657 117.511 480.657 118.227V118.384C480.657 119.095 480.521 119.735 480.247 120.305C479.978 120.87 479.591 121.316 479.085 121.645C478.584 121.973 477.987 122.137 477.294 122.137C476.601 122.137 476.002 121.973 475.496 121.645C474.995 121.316 474.607 120.87 474.334 120.305C474.061 119.735 473.924 119.095 473.924 118.384V118.227ZM475.202 118.384C475.202 118.871 475.28 119.323 475.435 119.737C475.59 120.152 475.82 120.485 476.125 120.735C476.435 120.986 476.825 121.111 477.294 121.111C477.759 121.111 478.144 120.986 478.449 120.735C478.759 120.485 478.992 120.152 479.146 119.737C479.301 119.323 479.379 118.871 479.379 118.384V118.227C479.379 117.739 479.301 117.288 479.146 116.873C478.992 116.458 478.759 116.126 478.449 115.875C478.139 115.62 477.75 115.492 477.28 115.492C476.82 115.492 476.435 115.62 476.125 115.875C475.815 116.126 475.583 116.458 475.428 116.873C475.277 117.288 475.202 117.739 475.202 118.227V118.384ZM483.528 124.844H482.25V114.604H483.412L483.48 115.41C483.731 115.105 484.034 114.872 484.39 114.713C484.745 114.549 485.155 114.467 485.62 114.467C486.24 114.467 486.764 114.624 487.192 114.938C487.621 115.253 487.947 115.695 488.17 116.265C488.393 116.83 488.505 117.488 488.505 118.24V118.384C488.505 119.104 488.393 119.746 488.17 120.312C487.947 120.877 487.621 121.323 487.192 121.651C486.769 121.975 486.251 122.137 485.641 122.137C485.185 122.137 484.782 122.064 484.431 121.918C484.08 121.772 483.779 121.562 483.528 121.289V124.844ZM487.227 118.24C487.227 117.748 487.156 117.297 487.015 116.887C486.878 116.472 486.661 116.142 486.365 115.896C486.074 115.649 485.698 115.526 485.237 115.526C484.813 115.526 484.463 115.624 484.185 115.82C483.911 116.012 483.692 116.253 483.528 116.545V120.106C483.692 120.398 483.911 120.64 484.185 120.831C484.463 121.018 484.818 121.111 485.251 121.111C485.707 121.111 486.08 120.986 486.372 120.735C486.664 120.485 486.878 120.154 487.015 119.744C487.156 119.329 487.227 118.876 487.227 118.384V118.24ZM494.247 114.604H495.607L492.641 123.142C492.554 123.383 492.424 123.647 492.251 123.935C492.078 124.226 491.845 124.475 491.554 124.68C491.262 124.885 490.893 124.987 490.446 124.987C490.346 124.987 490.218 124.974 490.063 124.946C489.909 124.919 489.797 124.896 489.729 124.878V123.859C489.765 123.864 489.822 123.871 489.899 123.88C489.981 123.889 490.038 123.894 490.07 123.894C490.499 123.894 490.834 123.805 491.075 123.627C491.317 123.449 491.513 123.132 491.663 122.677L491.937 121.925L489.305 114.604H490.699L492.531 120.127L494.247 114.604ZM498.021 122H496.742V114.604H497.986L498.014 115.444C498.201 115.144 498.438 114.907 498.725 114.733C499.016 114.556 499.363 114.467 499.764 114.467C499.85 114.467 499.953 114.478 500.071 114.501C500.194 114.519 500.279 114.54 500.324 114.562V115.731C500.128 115.695 499.921 115.677 499.702 115.677C499.274 115.677 498.921 115.775 498.643 115.971C498.365 116.162 498.157 116.422 498.021 116.75V122ZM501.5 112.635C501.5 112.434 501.562 112.263 501.685 112.122C501.812 111.981 501.999 111.91 502.245 111.91C502.491 111.91 502.678 111.981 502.806 112.122C502.938 112.263 503.004 112.434 503.004 112.635C503.004 112.831 502.938 112.999 502.806 113.141C502.678 113.277 502.491 113.346 502.245 113.346C501.999 113.346 501.812 113.277 501.685 113.141C501.562 112.999 501.5 112.831 501.5 112.635ZM502.874 122H501.596V114.604H502.874V122ZM504.59 118.24C504.59 117.488 504.708 116.83 504.945 116.265C505.182 115.695 505.52 115.253 505.957 114.938C506.395 114.624 506.914 114.467 507.516 114.467C507.98 114.467 508.386 114.549 508.732 114.713C509.083 114.877 509.382 115.109 509.628 115.41L509.683 114.604H510.845V121.843C510.845 122.494 510.71 123.05 510.441 123.511C510.177 123.971 509.808 124.32 509.334 124.557C508.865 124.798 508.322 124.919 507.707 124.919C507.452 124.919 507.151 124.878 506.805 124.796C506.463 124.718 506.126 124.584 505.793 124.393C505.465 124.206 505.189 123.953 504.966 123.634L505.629 122.889C505.939 123.262 506.262 123.522 506.6 123.668C506.941 123.818 507.279 123.894 507.611 123.894C508.208 123.894 508.682 123.723 509.033 123.381C509.389 123.044 509.566 122.551 509.566 121.904V121.269C509.325 121.547 509.033 121.761 508.691 121.911C508.35 122.062 507.953 122.137 507.502 122.137C506.91 122.137 506.395 121.975 505.957 121.651C505.524 121.323 505.187 120.877 504.945 120.312C504.708 119.746 504.59 119.104 504.59 118.384V118.24ZM505.868 118.384C505.868 118.876 505.934 119.325 506.066 119.73C506.203 120.136 506.415 120.462 506.702 120.708C506.989 120.95 507.361 121.07 507.816 121.07C508.263 121.07 508.625 120.968 508.903 120.763C509.181 120.558 509.402 120.298 509.566 119.983V116.586C509.407 116.285 509.186 116.035 508.903 115.834C508.621 115.629 508.263 115.526 507.83 115.526C507.37 115.526 506.994 115.649 506.702 115.896C506.415 116.142 506.203 116.472 506.066 116.887C505.934 117.297 505.868 117.748 505.868 118.24V118.384ZM514.03 122H512.752V111.5H514.03V115.479C514.295 115.164 514.609 114.918 514.974 114.74C515.343 114.558 515.753 114.467 516.204 114.467C516.933 114.467 517.51 114.674 517.934 115.089C518.362 115.499 518.576 116.187 518.576 117.153V122H517.298V117.14C517.298 116.556 517.173 116.142 516.922 115.896C516.671 115.649 516.307 115.526 515.828 115.526C515.423 115.526 515.065 115.636 514.755 115.854C514.45 116.073 514.208 116.358 514.03 116.709V122ZM523.573 115.567H522.192V120.168C522.192 120.551 522.274 120.795 522.438 120.899C522.607 121.004 522.796 121.057 523.006 121.057C523.111 121.057 523.22 121.048 523.334 121.029C523.452 121.011 523.539 120.995 523.594 120.981L523.601 122C523.5 122.032 523.368 122.062 523.204 122.089C523.045 122.121 522.851 122.137 522.623 122.137C522.313 122.137 522.028 122.075 521.769 121.952C521.509 121.829 521.301 121.624 521.146 121.337C520.992 121.045 520.914 120.653 520.914 120.161V115.567H519.567V114.604H520.914V112.806H522.192V114.604H523.573V115.567ZM528.181 117.017C528.181 116.292 528.306 115.62 528.557 115C528.807 114.38 529.156 113.84 529.603 113.38C530.049 112.915 530.564 112.555 531.147 112.3C531.735 112.04 532.364 111.91 533.034 111.91C533.704 111.91 534.331 112.04 534.914 112.3C535.502 112.555 536.017 112.915 536.459 113.38C536.906 113.84 537.254 114.38 537.505 115C537.756 115.62 537.881 116.292 537.881 117.017C537.881 117.741 537.756 118.413 537.505 119.033C537.254 119.653 536.906 120.198 536.459 120.667C536.017 121.132 535.502 121.494 534.914 121.754C534.331 122.014 533.704 122.144 533.034 122.144C532.364 122.144 531.735 122.014 531.147 121.754C530.564 121.494 530.049 121.132 529.603 120.667C529.156 120.198 528.807 119.653 528.557 119.033C528.306 118.413 528.181 117.741 528.181 117.017ZM528.974 117.017C528.974 117.623 529.078 118.188 529.288 118.712C529.498 119.236 529.789 119.694 530.163 120.086C530.537 120.478 530.967 120.783 531.455 121.002C531.947 121.221 532.474 121.33 533.034 121.33C533.595 121.33 534.119 121.221 534.606 121.002C535.099 120.783 535.529 120.478 535.898 120.086C536.272 119.694 536.564 119.236 536.773 118.712C536.983 118.188 537.088 117.623 537.088 117.017C537.088 116.406 536.983 115.841 536.773 115.321C536.564 114.802 536.272 114.348 535.898 113.961C535.529 113.569 535.099 113.266 534.606 113.052C534.119 112.833 533.595 112.724 533.034 112.724C532.474 112.724 531.947 112.833 531.455 113.052C530.967 113.266 530.537 113.569 530.163 113.961C529.789 114.348 529.498 114.802 529.288 115.321C529.078 115.841 528.974 116.406 528.974 117.017ZM535.208 117.912C535.208 118.628 535.005 119.165 534.6 119.525C534.194 119.881 533.643 120.059 532.945 120.059C532.216 120.059 531.637 119.815 531.209 119.327C530.785 118.835 530.573 118.197 530.573 117.413V116.627C530.573 115.843 530.785 115.207 531.209 114.72C531.637 114.228 532.216 113.981 532.945 113.981C533.643 113.981 534.194 114.159 534.6 114.515C535.01 114.87 535.215 115.406 535.215 116.121H534.217C534.217 115.67 534.107 115.346 533.889 115.15C533.674 114.95 533.36 114.85 532.945 114.85C532.494 114.85 532.15 115.016 531.913 115.349C531.681 115.681 531.564 116.105 531.564 116.62V117.413C531.564 117.937 531.681 118.363 531.913 118.691C532.15 119.02 532.494 119.184 532.945 119.184C533.36 119.184 533.674 119.088 533.889 118.896C534.103 118.701 534.21 118.372 534.21 117.912H535.208ZM545.92 122H539.392V121.098L542.652 117.468C543.058 117.021 543.37 116.643 543.589 116.333C543.812 116.019 543.967 115.736 544.054 115.485C544.14 115.235 544.184 114.979 544.184 114.72C544.184 114.228 544.033 113.808 543.732 113.462C543.436 113.111 543.012 112.936 542.461 112.936C541.791 112.936 541.292 113.127 540.964 113.51C540.64 113.888 540.479 114.376 540.479 114.973H539.2C539.2 114.412 539.323 113.899 539.569 113.435C539.815 112.97 540.18 112.601 540.663 112.327C541.151 112.049 541.75 111.91 542.461 111.91C543.4 111.91 544.133 112.154 544.662 112.642C545.195 113.129 545.462 113.772 545.462 114.569C545.462 115.157 545.277 115.75 544.908 116.347C544.544 116.939 544.106 117.513 543.596 118.069L540.93 120.975H545.92V122ZM553.515 117.755C553.515 118.835 553.387 119.696 553.132 120.339C552.881 120.977 552.521 121.437 552.052 121.72C551.582 121.998 551.026 122.137 550.384 122.137C549.75 122.137 549.197 121.998 548.723 121.72C548.249 121.437 547.88 120.977 547.615 120.339C547.355 119.696 547.226 118.835 547.226 117.755V116.23C547.226 115.146 547.353 114.289 547.608 113.66C547.868 113.031 548.233 112.582 548.702 112.313C549.176 112.045 549.732 111.91 550.37 111.91C551.013 111.91 551.569 112.045 552.038 112.313C552.507 112.582 552.87 113.031 553.125 113.66C553.385 114.289 553.515 115.146 553.515 116.23V117.755ZM552.236 116.019C552.236 114.897 552.077 114.104 551.758 113.64C551.443 113.17 550.981 112.936 550.37 112.936C549.769 112.936 549.306 113.17 548.982 113.64C548.663 114.104 548.504 114.897 548.504 116.019V117.953C548.504 119.065 548.666 119.869 548.989 120.366C549.317 120.863 549.782 121.111 550.384 121.111C550.994 121.111 551.455 120.863 551.765 120.366C552.079 119.869 552.236 119.065 552.236 117.953V116.019ZM561.67 122H555.142V121.098L558.402 117.468C558.808 117.021 559.12 116.643 559.339 116.333C559.562 116.019 559.717 115.736 559.804 115.485C559.89 115.235 559.934 114.979 559.934 114.72C559.934 114.228 559.783 113.808 559.482 113.462C559.186 113.111 558.762 112.936 558.211 112.936C557.541 112.936 557.042 113.127 556.714 113.51C556.39 113.888 556.229 114.376 556.229 114.973H554.95C554.95 114.412 555.073 113.899 555.319 113.435C555.565 112.97 555.93 112.601 556.413 112.327C556.901 112.049 557.5 111.91 558.211 111.91C559.15 111.91 559.883 112.154 560.412 112.642C560.945 113.129 561.212 113.772 561.212 114.569C561.212 115.157 561.027 115.75 560.658 116.347C560.294 116.939 559.856 117.513 559.346 118.069L556.68 120.975H561.67V122ZM569.265 117.755C569.265 118.835 569.137 119.696 568.882 120.339C568.631 120.977 568.271 121.437 567.802 121.72C567.332 121.998 566.776 122.137 566.134 122.137C565.5 122.137 564.947 121.998 564.473 121.72C563.999 121.437 563.63 120.977 563.365 120.339C563.105 119.696 562.976 118.835 562.976 117.755V116.23C562.976 115.146 563.103 114.289 563.358 113.66C563.618 113.031 563.983 112.582 564.452 112.313C564.926 112.045 565.482 111.91 566.12 111.91C566.763 111.91 567.319 112.045 567.788 112.313C568.257 112.582 568.62 113.031 568.875 113.66C569.135 114.289 569.265 115.146 569.265 116.23V117.755ZM567.986 116.019C567.986 114.897 567.827 114.104 567.508 113.64C567.193 113.17 566.731 112.936 566.12 112.936C565.519 112.936 565.056 113.17 564.732 113.64C564.413 114.104 564.254 114.897 564.254 116.019V117.953C564.254 119.065 564.416 119.869 564.739 120.366C565.067 120.863 565.532 121.111 566.134 121.111C566.744 121.111 567.205 120.863 567.515 120.366C567.829 119.869 567.986 119.065 567.986 117.953V116.019ZM575.096 122H573.729L577.529 112.047H578.691L582.499 122H581.139L580.188 119.396H576.039L575.096 122ZM576.429 118.322H579.799L578.11 113.674L576.429 118.322ZM585.028 122H583.75V111.5H585.028V122ZM588.433 122H587.154V111.5H588.433V122ZM595.2 122H593.922V114.604H595.166L595.193 115.444C595.38 115.144 595.617 114.907 595.904 114.733C596.196 114.556 596.542 114.467 596.943 114.467C597.03 114.467 597.132 114.478 597.251 114.501C597.374 114.519 597.458 114.54 597.504 114.562V115.731C597.308 115.695 597.101 115.677 596.882 115.677C596.453 115.677 596.1 115.775 595.822 115.971C595.544 116.162 595.337 116.422 595.2 116.75V122ZM598.68 112.635C598.68 112.434 598.741 112.263 598.864 112.122C598.992 111.981 599.179 111.91 599.425 111.91C599.671 111.91 599.858 111.981 599.985 112.122C600.118 112.263 600.184 112.434 600.184 112.635C600.184 112.831 600.118 112.999 599.985 113.141C599.858 113.277 599.671 113.346 599.425 113.346C599.179 113.346 598.992 113.277 598.864 113.141C598.741 112.999 598.68 112.831 598.68 112.635ZM600.054 122H598.775V114.604H600.054V122ZM601.77 118.24C601.77 117.488 601.888 116.83 602.125 116.265C602.362 115.695 602.699 115.253 603.137 114.938C603.574 114.624 604.094 114.467 604.695 114.467C605.16 114.467 605.566 114.549 605.912 114.713C606.263 114.877 606.562 115.109 606.808 115.41L606.862 114.604H608.024V121.843C608.024 122.494 607.89 123.05 607.621 123.511C607.357 123.971 606.988 124.32 606.514 124.557C606.044 124.798 605.502 124.919 604.887 124.919C604.632 124.919 604.331 124.878 603.984 124.796C603.643 124.718 603.305 124.584 602.973 124.393C602.645 124.206 602.369 123.953 602.146 123.634L602.809 122.889C603.118 123.262 603.442 123.522 603.779 123.668C604.121 123.818 604.458 123.894 604.791 123.894C605.388 123.894 605.862 123.723 606.213 123.381C606.568 123.044 606.746 122.551 606.746 121.904V121.269C606.505 121.547 606.213 121.761 605.871 121.911C605.529 122.062 605.133 122.137 604.682 122.137C604.089 122.137 603.574 121.975 603.137 121.651C602.704 121.323 602.367 120.877 602.125 120.312C601.888 119.746 601.77 119.104 601.77 118.384V118.24ZM603.048 118.384C603.048 118.876 603.114 119.325 603.246 119.73C603.383 120.136 603.595 120.462 603.882 120.708C604.169 120.95 604.54 121.07 604.996 121.07C605.443 121.07 605.805 120.968 606.083 120.763C606.361 120.558 606.582 120.298 606.746 119.983V116.586C606.587 116.285 606.366 116.035 606.083 115.834C605.8 115.629 605.443 115.526 605.01 115.526C604.549 115.526 604.174 115.649 603.882 115.896C603.595 116.142 603.383 116.472 603.246 116.887C603.114 117.297 603.048 117.748 603.048 118.24V118.384ZM611.21 122H609.932V111.5H611.21V115.479C611.474 115.164 611.789 114.918 612.153 114.74C612.522 114.558 612.933 114.467 613.384 114.467C614.113 114.467 614.689 114.674 615.113 115.089C615.542 115.499 615.756 116.187 615.756 117.153V122H614.478V117.14C614.478 116.556 614.352 116.142 614.102 115.896C613.851 115.649 613.486 115.526 613.008 115.526C612.602 115.526 612.244 115.636 611.935 115.854C611.629 116.073 611.388 116.358 611.21 116.709V122ZM620.753 115.567H619.372V120.168C619.372 120.551 619.454 120.795 619.618 120.899C619.787 121.004 619.976 121.057 620.186 121.057C620.29 121.057 620.4 121.048 620.514 121.029C620.632 121.011 620.719 120.995 620.773 120.981L620.78 122C620.68 122.032 620.548 122.062 620.384 122.089C620.224 122.121 620.031 122.137 619.803 122.137C619.493 122.137 619.208 122.075 618.948 121.952C618.688 121.829 618.481 121.624 618.326 121.337C618.171 121.045 618.094 120.653 618.094 120.161V115.567H616.747V114.604H618.094V112.806H619.372V114.604H620.753V115.567ZM626.529 120.038C626.529 119.856 626.488 119.687 626.406 119.532C626.329 119.373 626.169 119.229 625.928 119.102C625.686 118.969 625.322 118.853 624.834 118.753C624.014 118.58 623.364 118.334 622.886 118.015C622.407 117.696 622.168 117.233 622.168 116.627C622.168 116.235 622.28 115.877 622.503 115.554C622.731 115.226 623.05 114.964 623.46 114.768C623.875 114.567 624.358 114.467 624.909 114.467C625.502 114.467 626.007 114.572 626.427 114.781C626.851 114.986 627.174 115.264 627.397 115.615C627.621 115.962 627.732 116.347 627.732 116.771H626.454C626.454 116.465 626.32 116.176 626.051 115.902C625.786 115.629 625.406 115.492 624.909 115.492C624.385 115.492 624.009 115.608 623.781 115.841C623.558 116.069 623.446 116.317 623.446 116.586C623.446 116.768 623.492 116.928 623.583 117.064C623.674 117.197 623.84 117.315 624.082 117.42C624.328 117.525 624.684 117.63 625.148 117.734C626.055 117.944 626.725 118.217 627.158 118.555C627.591 118.887 627.808 119.352 627.808 119.949C627.808 120.596 627.546 121.123 627.021 121.528C626.502 121.934 625.809 122.137 624.943 122.137C624.292 122.137 623.74 122.021 623.289 121.788C622.838 121.556 622.496 121.257 622.264 120.893C622.031 120.523 621.915 120.134 621.915 119.724H623.193C623.216 120.07 623.316 120.346 623.494 120.551C623.676 120.751 623.897 120.895 624.157 120.981C624.422 121.068 624.684 121.111 624.943 121.111C625.458 121.111 625.85 121.009 626.119 120.804C626.393 120.599 626.529 120.343 626.529 120.038ZM634.206 122H632.928V114.604H634.172L634.199 115.444C634.386 115.144 634.623 114.907 634.91 114.733C635.202 114.556 635.548 114.467 635.949 114.467C636.036 114.467 636.138 114.478 636.257 114.501C636.38 114.519 636.464 114.54 636.51 114.562V115.731C636.314 115.695 636.106 115.677 635.888 115.677C635.459 115.677 635.106 115.775 634.828 115.971C634.55 116.162 634.343 116.422 634.206 116.75V122ZM640.748 122.137C640.06 122.137 639.461 121.984 638.95 121.679C638.444 121.369 638.05 120.945 637.768 120.407C637.49 119.869 637.351 119.254 637.351 118.562V118.268C637.351 117.465 637.503 116.782 637.809 116.217C638.118 115.647 638.52 115.214 639.012 114.918C639.508 114.617 640.033 114.467 640.584 114.467C641.295 114.467 641.874 114.626 642.32 114.945C642.771 115.26 643.102 115.69 643.312 116.237C643.526 116.78 643.633 117.395 643.633 118.083V118.65H638.629C638.643 119.106 638.736 119.521 638.909 119.895C639.087 120.264 639.338 120.56 639.661 120.783C639.985 121.002 640.37 121.111 640.816 121.111C641.263 121.111 641.641 121.02 641.951 120.838C642.261 120.656 642.532 120.412 642.765 120.106L643.537 120.708C643.3 121.073 642.958 121.403 642.512 121.699C642.07 121.991 641.482 122.137 640.748 122.137ZM640.584 115.492C640.083 115.492 639.659 115.677 639.312 116.046C638.971 116.415 638.757 116.941 638.67 117.625H642.354V117.529C642.336 117.201 642.27 116.882 642.156 116.572C642.042 116.258 641.86 116 641.609 115.8C641.359 115.595 641.017 115.492 640.584 115.492ZM649.416 120.038C649.416 119.856 649.375 119.687 649.293 119.532C649.215 119.373 649.056 119.229 648.814 119.102C648.573 118.969 648.208 118.853 647.721 118.753C646.9 118.58 646.251 118.334 645.772 118.015C645.294 117.696 645.055 117.233 645.055 116.627C645.055 116.235 645.166 115.877 645.39 115.554C645.618 115.226 645.937 114.964 646.347 114.768C646.761 114.567 647.244 114.467 647.796 114.467C648.388 114.467 648.894 114.572 649.313 114.781C649.737 114.986 650.061 115.264 650.284 115.615C650.507 115.962 650.619 116.347 650.619 116.771H649.341C649.341 116.465 649.206 116.176 648.938 115.902C648.673 115.629 648.293 115.492 647.796 115.492C647.272 115.492 646.896 115.608 646.668 115.841C646.445 116.069 646.333 116.317 646.333 116.586C646.333 116.768 646.379 116.928 646.47 117.064C646.561 117.197 646.727 117.315 646.969 117.42C647.215 117.525 647.57 117.63 648.035 117.734C648.942 117.944 649.612 118.217 650.045 118.555C650.478 118.887 650.694 119.352 650.694 119.949C650.694 120.596 650.432 121.123 649.908 121.528C649.389 121.934 648.696 122.137 647.83 122.137C647.178 122.137 646.627 122.021 646.176 121.788C645.725 121.556 645.383 121.257 645.15 120.893C644.918 120.523 644.802 120.134 644.802 119.724H646.08C646.103 120.07 646.203 120.346 646.381 120.551C646.563 120.751 646.784 120.895 647.044 120.981C647.308 121.068 647.57 121.111 647.83 121.111C648.345 121.111 648.737 121.009 649.006 120.804C649.279 120.599 649.416 120.343 649.416 120.038ZM655.418 122.137C654.73 122.137 654.131 121.984 653.62 121.679C653.114 121.369 652.72 120.945 652.438 120.407C652.16 119.869 652.021 119.254 652.021 118.562V118.268C652.021 117.465 652.173 116.782 652.479 116.217C652.788 115.647 653.189 115.214 653.682 114.918C654.178 114.617 654.702 114.467 655.254 114.467C655.965 114.467 656.544 114.626 656.99 114.945C657.441 115.26 657.772 115.69 657.981 116.237C658.196 116.78 658.303 117.395 658.303 118.083V118.65H653.299C653.312 119.106 653.406 119.521 653.579 119.895C653.757 120.264 654.007 120.56 654.331 120.783C654.655 121.002 655.04 121.111 655.486 121.111C655.933 121.111 656.311 121.02 656.621 120.838C656.931 120.656 657.202 120.412 657.435 120.106L658.207 120.708C657.97 121.073 657.628 121.403 657.182 121.699C656.74 121.991 656.152 122.137 655.418 122.137ZM655.254 115.492C654.753 115.492 654.329 115.677 653.982 116.046C653.641 116.415 653.426 116.941 653.34 117.625H657.024V117.529C657.006 117.201 656.94 116.882 656.826 116.572C656.712 116.258 656.53 116 656.279 115.8C656.029 115.595 655.687 115.492 655.254 115.492ZM661.058 122H659.779V114.604H661.023L661.051 115.444C661.238 115.144 661.475 114.907 661.762 114.733C662.053 114.556 662.4 114.467 662.801 114.467C662.887 114.467 662.99 114.478 663.108 114.501C663.231 114.519 663.316 114.54 663.361 114.562V115.731C663.165 115.695 662.958 115.677 662.739 115.677C662.311 115.677 661.958 115.775 661.68 115.971C661.402 116.162 661.194 116.422 661.058 116.75V122ZM668.912 114.604H670.218L667.565 122H666.595L663.915 114.604H665.221L667.094 120.271L668.912 114.604ZM674.518 122.137C673.829 122.137 673.23 121.984 672.72 121.679C672.214 121.369 671.82 120.945 671.537 120.407C671.259 119.869 671.12 119.254 671.12 118.562V118.268C671.12 117.465 671.273 116.782 671.578 116.217C671.888 115.647 672.289 115.214 672.781 114.918C673.278 114.617 673.802 114.467 674.354 114.467C675.064 114.467 675.643 114.626 676.09 114.945C676.541 115.26 676.871 115.69 677.081 116.237C677.295 116.78 677.402 117.395 677.402 118.083V118.65H672.398C672.412 119.106 672.506 119.521 672.679 119.895C672.856 120.264 673.107 120.56 673.431 120.783C673.754 121.002 674.139 121.111 674.586 121.111C675.033 121.111 675.411 121.02 675.721 120.838C676.031 120.656 676.302 120.412 676.534 120.106L677.307 120.708C677.07 121.073 676.728 121.403 676.281 121.699C675.839 121.991 675.251 122.137 674.518 122.137ZM674.354 115.492C673.852 115.492 673.428 115.677 673.082 116.046C672.74 116.415 672.526 116.941 672.439 117.625H676.124V117.529C676.106 117.201 676.04 116.882 675.926 116.572C675.812 116.258 675.63 116 675.379 115.8C675.128 115.595 674.786 115.492 674.354 115.492ZM678.571 118.24C678.571 117.488 678.692 116.83 678.934 116.265C679.18 115.695 679.521 115.253 679.959 114.938C680.396 114.624 680.909 114.467 681.497 114.467C681.944 114.467 682.336 114.542 682.673 114.692C683.01 114.843 683.299 115.057 683.541 115.335V111.5H684.819V122H683.65L683.589 121.214C683.347 121.51 683.051 121.738 682.7 121.897C682.354 122.057 681.948 122.137 681.483 122.137C680.905 122.137 680.396 121.975 679.959 121.651C679.521 121.323 679.18 120.877 678.934 120.312C678.692 119.746 678.571 119.104 678.571 118.384V118.24ZM679.85 118.384C679.85 118.876 679.916 119.327 680.048 119.737C680.185 120.143 680.396 120.466 680.684 120.708C680.971 120.95 681.342 121.07 681.798 121.07C682.24 121.07 682.598 120.97 682.871 120.77C683.149 120.569 683.372 120.314 683.541 120.004V116.565C683.377 116.265 683.156 116.016 682.878 115.82C682.6 115.624 682.244 115.526 681.812 115.526C681.351 115.526 680.975 115.649 680.684 115.896C680.396 116.142 680.185 116.472 680.048 116.887C679.916 117.297 679.85 117.748 679.85 118.24V118.384Z" fill="#21243D"/>
</svg>
